<?xml version="1.0" encoding="UTF-8"?>
<svg id="Layer_5" data-name="Layer 5" xmlns="http://www.w3.org/2000/svg" viewBox="0 0 345.09 345.09">
  <defs>
    <style>
      .cls-1 {
        stroke-width: 14.4px;
      }

      .cls-1, .cls-2 {
        fill: none;
      }

      .cls-1, .cls-2, .cls-3 {
        stroke: #fff;
        stroke-miterlimit: 10;
      }

      .cls-2 {
        stroke-width: 19.46px;
      }

      .cls-3 {
        fill: #fff;
        stroke-width: .92px;
      }
    </style>
  </defs>
  <path class="cls-3" d="M175.63,137.77v5.4c0,1.83-1.48,3.3-3.3,3.3h-7.5c-1.43,0-2.7.92-3.14,2.29l-6.17,19.15-2.18,6.74c-.44,1.37-1.71,2.29-3.14,2.29h-19.41c-1.83,0-3.3-1.48-3.3-3.3v-5.4c0-1.83,1.48-3.3,3.3-3.3h10.68c1.43,0,2.7-.92,3.14-2.29l5.21-16.19,3.13-9.7c.44-1.37,1.71-2.29,3.14-2.29h16.24c1.83,0,3.3,1.48,3.3,3.3h0Z"/>
  <path class="cls-3" d="M160.04,119.16l1.88-7.28c.83-3.21,4.1-5.13,7.3-4.31h0c3.21.83,5.13,4.1,4.31,7.3l-1.88,7.28c-.83,3.21-4.1,5.13-7.3,4.31h0c-3.21-.83-5.13-4.1-4.31-7.3Z"/>
  <path class="cls-3" d="M231.93,177.62l-1.72-.49c-4.63-1.31-7.49-6.85-6.39-12.39l7.12-35.87c1.1-5.52,5.74-8.95,10.37-7.64l1.72.49c4.63,1.31,7.49,6.85,6.39,12.39l-7.12,35.87c-1.1,5.52-5.74,8.95-10.37,7.64h0Z"/>
  <path class="cls-3" d="M165.73,195.79l-.22-1.04c-.35-1.68.26-3.48,1.34-3.97,7.46-3.34,34.44-13.6,61.16-1.22,1.07.5,1.67,2.28,1.33,3.94l-.21,1.03c-.33,1.6-1.41,2.5-2.43,2.03-25.24-11.67-51.51-1.83-58.54,1.25-1.02.44-2.08-.44-2.42-2.02h0Z"/>
  <circle class="cls-1" cx="175.63" cy="168.57" r="105.83"/>
  <circle class="cls-2" cx="174.12" cy="170.07" r="143"/>
</svg>