<?xml version="1.0" encoding="UTF-8"?><svg id="Layer_5" xmlns="http://www.w3.org/2000/svg" viewBox="0 0 486.31 328.72"><defs><style>.cls-1{fill:#f68948;}.cls-2{fill:#ededee;stroke:#231f20;stroke-miterlimit:10;stroke-width:6px;}</style></defs><path class="cls-2" d="M329.93,289.91c-39.17,9.56-83.3,8.85-122.84-.46-1.54-.36-3.16-.02-4.38,1-9.17,7.67-27.14,15.26-62.37,15.04-.16,0-.23-.21-.09-.3,2.7-1.64,15.93-10.18,23.85-24.19,1.44-2.55.35-5.79-2.3-7.04-34.55-16.17-60.46-40.42-67.92-71.03-17.87-73.25,76.71-155.25,171.34-178.33,94.62-23.07,153.47,21.5,171.33,94.76,17.87,73.26-12.01,147.46-106.63,170.54Z"/><path class="cls-1" d="M325.37,127.4c1.46-.15,2.44,1.24,1.59,2.27l-12.1,14.6h-.03l-57.4,71.71c-.82,1.03.16,2.4,1.6,2.25l47.01-4.85c1.46-.15,2.44,1.24,1.59,2.27l-11.66,14.08c-.28.33-.71.55-1.18.6l-53.24,5.49-25.97,2.68c-1.45.15-2.43-1.22-1.6-2.25l69.07-86.28c.82-1.03-.16-2.4-1.6-2.25l-46.46,4.79c-1.46.15-2.44-1.24-1.59-2.27l11.65-14.08c.28-.33.71-.55,1.18-.6l79.14-8.16Z"/><ellipse class="cls-1" cx="315.68" cy="97.76" rx="22.79" ry="19.9" transform="translate(6.66 214.88) rotate(-37.96)"/></svg>