<?xml version="1.0" encoding="UTF-8"?>
<svg id="Layer_1" xmlns="http://www.w3.org/2000/svg" version="1.1" viewBox="0 0 312.81 327.26">
  <!-- Generator: Adobe Illustrator 30.2.1, SVG Export Plug-In . SVG Version: 2.1.1 Build 1)  -->
  <defs>
    <style>
      .st0 {
        fill: #231f20;
        stroke: #fff;
      }

      .st0, .st1, .st2, .st3 {
        stroke-miterlimit: 10;
      }

      .st1 {
        stroke-width: 19.46px;
      }

      .st1, .st2 {
        fill: none;
      }

      .st1, .st2, .st3 {
        stroke: #010101;
      }

      .st2 {
        stroke-width: 14.4px;
      }

      .st4 {
        display: none;
      }

      .st3 {
        fill: #010101;
        stroke-width: .92px;
      }
    </style>
  </defs>
  <g id="Layer_2" class="st4">
    <rect class="st0" x="-17.22" y="-9.13" width="344.09" height="344.09"/>
  </g>
  <g id="Layer_5">
    <path class="st3" d="M157.91,128.14v5.4c0,1.83-1.48,3.3-3.3,3.3h-7.5c-1.43,0-2.7.92-3.14,2.29l-6.17,19.15-2.18,6.74c-.44,1.37-1.71,2.29-3.14,2.29h-19.41c-1.83,0-3.3-1.48-3.3-3.3v-5.4c0-1.83,1.48-3.3,3.3-3.3h10.68c1.43,0,2.7-.92,3.14-2.29l5.21-16.19,3.13-9.7c.44-1.37,1.71-2.29,3.14-2.29h16.24c1.83,0,3.3,1.48,3.3,3.3h0Z"/>
    <path class="st3" d="M142.32,109.53l1.88-7.28c.83-3.21,4.1-5.13,7.3-4.31h0c3.21.83,5.13,4.1,4.31,7.3l-1.88,7.28c-.83,3.21-4.1,5.13-7.3,4.31h0c-3.21-.83-5.13-4.1-4.31-7.3Z"/>
    <path class="st3" d="M214.22,167.99l-1.72-.49c-4.63-1.31-7.49-6.85-6.39-12.39l7.12-35.87c1.1-5.52,5.74-8.95,10.37-7.64l1.72.49c4.63,1.31,7.49,6.85,6.39,12.39l-7.12,35.87c-1.1,5.52-5.74,8.95-10.37,7.64h0Z"/>
    <path class="st3" d="M148.01,186.16l-.22-1.04c-.35-1.68.26-3.48,1.34-3.97,7.46-3.34,34.44-13.6,61.16-1.22,1.07.5,1.67,2.28,1.33,3.94l-.21,1.03c-.33,1.6-1.41,2.5-2.43,2.03-25.24-11.67-51.51-1.83-58.54,1.25-1.02.44-2.08-.44-2.42-2.02h-.01Z"/>
    <circle class="st2" cx="157.91" cy="158.94" r="105.83"/>
    <circle class="st1" cx="156.4" cy="160.44" r="143"/>
  </g>
</svg>