<?xml version="1.0" encoding="UTF-8"?>
<svg id="Layer_5" data-name="Layer 5" xmlns="http://www.w3.org/2000/svg" viewBox="0 0 312.81 327.26">
  <defs>
    <style>
      .cls-1 {
        fill: none;
        stroke: #000;
        stroke-miterlimit: 10;
        stroke-width: 3px;
      }
    </style>
  </defs>
  <path d="M280.45,113.84c-4.55-.22-9.8-1.02-15.53-2.83,7.58,15.23,11.83,32.32,11.83,50.37,0,63.65-52.92,115.44-117.97,115.44s-117.97-51.79-117.97-115.44,52.92-115.45,117.97-115.45c19.43,0,37.77,4.62,53.94,12.79-1.59-5.48-2.4-10.74-2.72-15.56-15.74-6.58-33.05-10.23-51.22-10.23-72.21,0-130.97,57.62-130.97,128.45s58.76,128.44,130.97,128.44,130.97-57.62,130.97-128.44c0-16.79-3.3-32.83-9.3-47.54Z"/>
  <path d="M161.74,129.52v5.85c0,1.98-1.6,3.58-3.58,3.58h-8.13c-1.55,0-2.93,1-3.4,2.48l-6.69,20.76-2.36,7.31c-.48,1.48-1.85,2.48-3.4,2.48h-21.05c-1.98,0-3.58-1.6-3.58-3.58v-5.85c0-1.98,1.6-3.58,3.58-3.58h11.58c1.55,0,2.93-1,3.4-2.48l5.65-17.55,3.39-10.52c.48-1.48,1.85-2.48,3.4-2.48h17.61c1.98,0,3.58,1.6,3.58,3.58Z"/>
  <rect x="141.58" y="100.51" width="21.15" height="13" rx="6.5" ry="6.5" transform="translate(10.52 227.61) rotate(-75.53)"/>
  <path d="M222.79,172.73l-1.86-.53c-5.02-1.42-8.12-7.43-6.93-13.43l7.72-38.89c1.19-5.99,6.22-9.7,11.24-8.28l1.86.53c5.02,1.42,8.12,7.43,6.93,13.43l-7.72,38.89c-1.19,5.99-6.22,9.7-11.24,8.28Z"/>
  <path d="M151.01,192.43l-.24-1.13c-.38-1.82.28-3.77,1.45-4.3,8.09-3.62,37.34-14.74,66.31-1.32,1.16.54,1.81,2.47,1.44,4.27l-.23,1.12c-.36,1.74-1.53,2.71-2.64,2.2-27.37-12.65-55.85-1.98-63.47,1.35-1.11.48-2.26-.48-2.62-2.19Z"/>
  <path class="cls-1" d="M240.63,40.28l-25.19-19.7c11.8,7.98,14.24,11.06,25.19,19.7Z"/>
  <path class="cls-1" d="M309.65,162.16c0,85.09-68.99,154.07-154.08,154.07S1.5,247.25,1.5,162.16,70.58,3.94,155.57,8.08c12.7.62,46.43,3.56,57.99,11.24.27.18.54.36.8.54-1.15-.46-2.5.2-2.79,1.49-.9,4.07-2.24,12.01-1.57,21.81.32,4.82,1.13,10.08,2.72,15.56,3.12,10.81,9.27,22.44,20.66,33.06,11.25,10.49,22.06,16.24,31.54,19.23,5.73,1.81,10.98,2.61,15.53,2.83,11.05.54,18.02-2.32,18.02-2.32l-56.7-70.34,57.8,71.33c10.24,20.62,10.08,25.07,10.08,49.65Z"/>
  <path class="cls-1" d="M298.47,111.52s-6.97,2.86-18.02,2.32c-4.55-.22-9.8-1.02-15.53-2.83-9.48-2.99-20.29-8.74-31.54-19.23-11.39-10.62-17.54-22.25-20.66-33.06-1.59-5.48-2.4-10.74-2.72-15.56-.67-9.8.67-17.74,1.57-21.81.29-1.29,1.64-1.95,2.79-1.49.37.24.73.48,1.08.72l25.19,19.7,1.14.9,56.7,70.34Z"/>
  <path class="cls-1" d="M215.44,20.58c-.35-.24-.71-.48-1.08-.72.17.06.33.14.49.26l.59.46Z"/>
</svg>