<?xml version="1.0" encoding="UTF-8"?><svg id="Layer_4" xmlns="http://www.w3.org/2000/svg" viewBox="0 0 486.31 328.72"><defs><style>.cls-1{fill:#f68948;stroke:#231f20;stroke-miterlimit:10;stroke-width:6px;}</style></defs><path class="cls-1" d="M396.94,186.4l-40.15,34.69c-4.79,4.14-12.16,3.45-16.47-1.53l-9.9-11.46c-4.31-4.98-3.91-12.38.88-16.52l24.35-21.04c5.82-5.03,10.78-10.63,14.84-16.6,17.67-25.91,18.5-58.63-.21-80.29-18.71-21.66-51.21-25.58-79.4-11.86-6.49,3.15-12.76,7.24-18.58,12.27l-24.35,21.04c-4.79,4.14-12.16,3.45-16.47-1.53l-9.9-11.46c-4.31-4.98-3.91-12.38.88-16.52l41.06-35.48C303.67-4.59,364.94.07,402.39,39.96c40.18,42.79,37.24,109.55-5.45,146.44Z"/><path class="cls-1" d="M303.35,267.26l-40.21,34.74c-42.69,36.89-109.17,30.11-145.68-15.85-34.03-42.84-29.76-104.14,10.41-138.85l41.12-35.53c4.75-4.11,12.07-3.43,16.35,1.52l10.02,11.6c4.27,4.95,3.88,12.29-.87,16.39l-24.42,21.1c-5.82,5.03-10.78,10.63-14.84,16.6-17.67,25.91-18.5,58.63.21,80.29,18.71,21.66,51.21,25.58,79.4,11.86,6.49-3.15,12.76-7.24,18.58-12.27l24.42-21.1c4.75-4.11,12.07-3.43,16.35,1.52l10.02,11.6c4.27,4.95,3.88,12.29-.87,16.39Z"/><path class="cls-1" d="M321.95,163.42l-70.67,61.06c-5.62,4.85-11.68,8.62-17.81,11.27-8.67,3.76-17.48,5.28-25.33,4.46-7.83-.82-14.7-3.98-19.55-9.59s-6.97-12.87-6.66-20.74c.32-7.89,3.11-16.38,8.09-24.41,3.51-5.68,8.12-11.13,13.74-15.98l70.67-61.06c5.62-4.85,11.68-8.63,17.81-11.27,8.67-3.76,17.49-5.28,25.33-4.46,7.83.83,14.71,3.99,19.55,9.59s6.97,12.86,6.65,20.72c-.31,7.89-3.1,16.39-8.08,24.43-3.51,5.67-8.12,11.13-13.74,15.98Z"/></svg>