<?xml version="1.0" encoding="UTF-8"?>
<svg id="Layer_1" data-name="Layer 1" xmlns="http://www.w3.org/2000/svg" viewBox="0 0 312.65 327.98">
  <defs>
    <style>
      .cls-1 {
        fill: none;
      }

      .cls-1, .cls-2, .cls-3 {
        stroke: #fff;
        stroke-miterlimit: 10;
      }

      .cls-2 {
        stroke-width: 3px;
      }

      .cls-2, .cls-3 {
        fill: #fff;
      }
    </style>
  </defs>
  <path class="cls-3" d="M275.13,127.7l8.47,18.92h-12.48V9.81c0-5.15-4.17-9.31-9.29-9.31H56.7c-5.12,0-9.29,4.16-9.29,9.31v136.81h-13.99l9.99-20.34.26-36.66-33.32,61.81-.09.19c-.04.05-.07.12-.08.19h-.01c-.6,1.21-.94,2.58-.96,4.03l-1.51,162.24c0,.15,0,.29.01.44,0,.15.01.29.03.44.03.39.08.78.17,1.17.03.16.07.31.11.47.04.16.09.32.15.48.17.51.37,1,.62,1.46.12.24.25.47.4.68,0,.01.01.03.03.04.16.27.35.51.54.74.19.25.4.49.64.72.11.12.21.23.33.32.11.11.23.2.35.31.24.2.49.39.74.56.13.08.25.16.38.24.13.09.27.16.4.23.27.15.53.28.81.4.6.25,1.21.44,1.84.55.17.04.36.07.53.09.13.01.27.03.38.04.28.03.54.04.82.04h281.54c.17,0,.35,0,.52-.01.13-.01.27-.03.4-.04h.05c.15-.01.29-.03.42-.05.73-.11,1.43-.31,2.11-.59.17-.07.35-.15.52-.24,1.13-.53,2.15-1.3,2.97-2.26.11-.12.21-.25.31-.37.61-.77,1.1-1.65,1.45-2.61.03-.07.05-.13.07-.2.05-.16.11-.32.15-.48.09-.31.16-.61.2-.92.03-.15.05-.29.07-.44.01-.05.01-.11.01-.16.01-.13.03-.28.04-.41.01-.17.01-.36.01-.53v-162.24c0-1.49-.35-2.89-.96-4.12l-.16-.32-31.81-60.15.23,36.36ZM65.99,19.12h186.55v126.99H65.99V19.12ZM27.7,165.24h261.54v133.18l-89.91-74.34c-.13-.11-.27-.21-.4-.31-19.62-14.51-46.52-15.28-66.93-1.92-.15.09-.29.2-.42.29l-105.13,77.5,1.26-134.4ZM45.3,308.86l97.06-71.55c13.86-8.95,32.01-8.43,45.34,1.3l84.97,70.25H45.3Z"/>
  <path class="cls-2" d="M159.67,30c-29.05,0-52.7,23.08-52.7,51.46s17.48,50.07,46.54,50.07c14.99,0,32.04-4.57,31.35-29.16v-28.51c0-5.88-2.25-10.49-6.69-13.83-4.43-3.4-10.45-5.09-18.08-5.09-3.09,0-6.34.43-9.88,1.25-3.48.82-6.41,1.82-8.76,3.08-1.79.93-2.3,2.13-1.58,3.72l3.83,8.45c.62,1.15,1.74,1.37,3.37.71,3.42-1.48,7.58-2.19,12.47-2.19,4.11,0,6.86,2.04,6.86,5.28v1.53l-12.71.05c-12.07.05-18.14,4.71-18.14,13.94,0,4.88,1.63,8.72,4.88,11.47,3.32,2.73,7.81,4.1,13.48,4.1,6.74,0,12.03-2.02,15.84-6.14l1.56,3.21c3.53,9.27-6.06,15.87-17.91,15.72-21.6-.26-32.91-16.56-32.91-37.65s17.58-38.25,39.18-38.25,39.18,17.16,39.18,38.25c0,.88-.03,1.74-.11,2.59h13.56c.04-.85.07-1.71.07-2.59,0-28.38-23.65-51.46-52.7-51.46ZM157.69,94.77c-3.52,0-5.98-1.7-5.98-4.22,0-2.27,1.57-3.73,4.84-3.73h9.27c0,5.24-3.28,7.95-8.13,7.95Z"/>
  <line class="cls-1" x1="230.37" y1="83.64" x2="214.57" y2="83.64"/>
  <line class="cls-1" x1="188.47" y1="83.86" x2="183.31" y2="83.86"/>
  <line class="cls-1" x1="199.42" y1="118.88" x2="187.88" y2="116.99"/>
  <line class="cls-1" x1="170.45" y1="114.14" x2="167.21" y2="113.61"/>
</svg>