<?xml version="1.0" encoding="UTF-8"?>
<svg id="Layer_8" data-name="Layer 8" xmlns="http://www.w3.org/2000/svg" viewBox="0 0 341.36 333.98">
  <defs>
    <style>
      .cls-1 {
        fill: #fff;
        stroke: #fff;
        stroke-miterlimit: 10;
        stroke-width: 3px;
      }
    </style>
  </defs>
  <path class="cls-1" d="M225.2,287.17c-53.54,0-96.94-47.1-96.94-105.2s43.4-105.2,96.94-105.2c41.78,0,77.39,28.69,91.01,68.91.43,1.27,2.32.8,2.09-.53C305.02,66,230.54,7.61,145.18,20.3,85.13,29.23,27.63,86.42,18.42,146.43c-14.51,94.57,58.27,175.99,150.08,175.99,47.43,0,89.78-21.74,117.64-55.79.83-1.02-.53-2.37-1.54-1.52-16.41,13.83-37.02,22.06-59.4,22.06Z"/>
  <polygon class="cls-1" points="272.86 146.71 263.62 153.31 273.74 156.84 272.86 146.71"/>
  <polygon class="cls-1" points="249.52 181.06 238.51 185.9 238.51 190.3 264.5 188.1 249.52 181.06"/>
</svg>