<?xml version="1.0" encoding="UTF-8"?>
<svg id="Layer_2" data-name="Layer 2" xmlns="http://www.w3.org/2000/svg" viewBox="0 0 284.32 257.63">
  <defs>
    <style>
      .cls-1 {
        fill: none;
      }

      .cls-1, .cls-2 {
        stroke: #000;
        stroke-miterlimit: 10;
        stroke-width: 12.92px;
      }
    </style>
  </defs>
  <path class="cls-1" d="M273.32,78.95v168.88c0,1.43-1.16,2.59-2.59,2.59H9.05c-1.43,0-2.59-1.16-2.59-2.59l.02-168.38,2.43-8.92v-17.52c0-1.43,1.15-2.59,2.58-2.59h103.42c5.02,0,9.09,4.07,9.09,9.09v16.85h146.73c1.43,0,2.59,1.16,2.59,2.59Z"/>
  <path class="cls-1" d="M227.22,32.88v42.72h-103.22v-16.09c0-5.02-4.07-9.09-9.09-9.09H22.89v-17.54h204.33Z"/>
  <polygon class="cls-1" points="262.45 6.46 262.45 75.6 227.22 75.6 227.22 32.88 39.18 32.88 39.18 6.46 262.45 6.46"/>
  <rect class="cls-2" x="28.17" y="106.87" width="128.59" height="18.94"/>
  <rect class="cls-2" x="258.92" y="140.33" width="18.94" height="11.01" rx=".34" ry=".34"/>
  <rect class="cls-2" x="258.92" y="167.81" width="18.94" height="11.01" rx=".34" ry=".34"/>
</svg>