<?xml version="1.0" encoding="UTF-8"?><svg id="Layer_2" xmlns="http://www.w3.org/2000/svg" viewBox="0 0 486.31 328.72"><defs><style>.cls-1{fill:#fbfbfb;}.cls-1,.cls-2,.cls-3{stroke:#231f20;stroke-width:2px;}.cls-1,.cls-2,.cls-3,.cls-4{stroke-miterlimit:10;}.cls-2{fill:#e4e5e6;}.cls-5{fill:#231f20;}.cls-3{fill:#f68948;}.cls-4{fill:none;stroke:#f68948;stroke-width:7px;}</style></defs><rect class="cls-1" x="98.22" y="19.12" width="308.68" height="247.91"/><rect class="cls-1" x="108.35" y="44.71" width="308.68" height="247.91"/><rect class="cls-3" x="298.73" y="39.38" width="30.92" height="61.31" rx="6.13" ry="6.13"/><rect class="cls-3" x="340.71" y="39.38" width="48.52" height="61.31" rx="6.13" ry="6.13"/><path class="cls-2" d="M91.85,298.18c-.56,0-.94-.58-.72-1.09l-.06-232.64c.93-2.18,1.97-3.86,4.17-3.86h122.88c2.13,0,3.88,1.68,3.97,3.8,0,.11-.02.23-.06.33l-.45,19.93c-.04.11-.06.22-.06.33.09,2.11,1.83,3.8,3.97,3.8h205.57c1.74,0,1.62,1.78,3.02,3.1.25.24.3.62.16.94l.08,204.43c-.26.57-.82.93-1.44.93H91.85Z"/><path class="cls-1" d="M228.7,140.67h-117.74c-1.9,0-2.35-1.72-2.37-3.7l-.24-21.28c0-.98,1.35-1.52,2.37-1.52h117.32c1.88,0,3.21,1.6,3.04,3.63v21.3c-.42.94-1.35,1.55-2.38,1.55Z"/><rect class="cls-5" x="108.35" y="157.73" width="167.45" height="8.53"/><rect class="cls-5" x="108.35" y="175.15" width="167.45" height="8.47"/><path class="cls-4" d="M437.37,195.32h-48.25s-14.13,1.37-14.13,14.69c0,0,0,13.69,12.13,13.69h50.25s3.9.4,3.43-9.12c0,0,.2-5.08-3.2-5.08h-47.38"/></svg>