<?xml version="1.0" encoding="UTF-8"?>
<svg id="Layer_7" data-name="Layer 7" xmlns="http://www.w3.org/2000/svg" viewBox="0 0 356.39 332.91">
  <defs>
    <style>
      .cls-1 {
        stroke: #000;
        stroke-miterlimit: 10;
        stroke-width: 3px;
      }
    </style>
  </defs>
  <ellipse class="cls-1" cx="182.44" cy="165.14" rx="94.99" ry="94.85"/>
  <rect class="cls-1" x="174.2" y="1.5" width="17.61" height="56.56" rx="4.75" ry="4.75"/>
  <rect class="cls-1" x="174.2" y="272.84" width="17.61" height="56.56" rx="4.75" ry="4.75"/>
  <rect class="cls-1" x="34.09" y="136.73" width="17.61" height="56.56" rx="4.75" ry="4.75" transform="translate(-122.12 207.91) rotate(-90)"/>
  <rect class="cls-1" x="310.2" y="136.73" width="17.61" height="56.56" rx="4.75" ry="4.75" transform="translate(153.99 484.02) rotate(-90)"/>
  <rect class="cls-1" x="272.51" y="7.26" width="34.78" height="86.32" rx="11.55" ry="11.55" transform="translate(120.56 -190.23) rotate(45)"/>
  <rect class="cls-1" x="49.03" y="230.74" width="34.78" height="86.32" rx="11.55" ry="11.55" transform="translate(213.13 33.26) rotate(45)"/>
  <rect class="cls-1" x="49.03" y="7.26" width="34.78" height="86.32" rx="11.55" ry="11.55" transform="translate(-16.2 61.73) rotate(-45)"/>
  <rect class="cls-1" x="272.51" y="230.74" width="34.78" height="86.32" rx="11.55" ry="11.55" transform="translate(-108.77 285.22) rotate(-45)"/>
  <rect class="cls-1" x="221.89" y="25.39" width="11.08" height="35.57" rx="2.99" ry="2.99" transform="translate(29.58 -77) rotate(20.53)"/>
  <rect class="cls-1" x="130.49" y="270.31" width="11.08" height="35.57" rx="2.99" ry="2.99" transform="translate(109.65 -29.41) rotate(20.53)"/>
  <rect class="cls-1" x="43.3" y="97.69" width="11.08" height="35.57" rx="2.99" ry="2.99" transform="translate(-76.43 120.72) rotate(-69.47)"/>
  <rect class="cls-1" x="295.63" y="195.45" width="11.08" height="35.57" rx="2.99" ry="2.99" transform="translate(-4.13 420.52) rotate(-69.47)"/>
  <rect class="cls-1" x="119.14" y="24.51" width="11.08" height="35.57" rx="2.99" ry="2.99" transform="translate(-6.23 56.3) rotate(-24.85)"/>
  <rect class="cls-1" x="229.24" y="261.62" width="11.08" height="35.57" rx="2.99" ry="2.99" transform="translate(-95.67 124.51) rotate(-24.85)"/>
  <rect class="cls-1" x="45.13" y="202.4" width="11.08" height="35.57" rx="2.99" ry="2.99" transform="translate(-127.84 358.69) rotate(-114.85)"/>
  <rect class="cls-1" x="291.97" y="91.5" width="11.08" height="35.57" rx="2.99" ry="2.99" transform="translate(323.35 425.18) rotate(-114.85)"/>
</svg>