<?xml version="1.0" encoding="UTF-8"?>
<svg id="Layer_3" data-name="Layer 3" xmlns="http://www.w3.org/2000/svg" viewBox="0 0 318.78 333.39">
  <defs>
    <style>
      .cls-1 {
        fill: #010101;
      }

      .cls-2 {
        fill: none;
        stroke: #010101;
        stroke-miterlimit: 10;
        stroke-width: 15.74px;
      }
    </style>
  </defs>
  <polygon class="cls-2" points="277.44 99.76 204.63 42.43 264.89 56.23 277.44 99.76"/>
  <polygon class="cls-2" points="305.28 196.31 271.93 229.73 268.77 251.58 237.75 263.97 161.85 294.31 135.11 305 105 281.29 52.33 269.23 41.36 231.17 22.02 215.95 27.01 181.4 38.38 102.66 42.59 73.49 84 56.94 118.23 22.64 151.03 30.15 176.25 20.08 204.63 42.43 277.44 99.76 289.34 109.12 286.27 130.38 305.28 196.31"/>
  <polygon class="cls-2" points="38.38 102.66 27.01 181.4 11.95 129.15 38.38 102.66"/>
  <polygon class="cls-2" points="237.75 263.97 200.61 307.92 161.85 294.31 237.75 263.97"/>
  <polygon class="cls-1" points="202.19 67.94 141.74 73.78 120.06 58.55 85.39 101.32 118.75 78.31 137.78 95.07 190.22 82.75 290.43 106.82 202.19 67.94"/>
  <polygon class="cls-1" points="153.18 242.4 100.75 278.66 116.68 297.4 170.61 255.03 206.09 167.59 153.18 242.4"/>
  <polygon class="cls-1" points="27.44 187.88 16.57 167.88 50.66 149.01 114.57 181.4 54.33 166.06 27.44 187.88"/>
  <path class="cls-1" d="M57.17,282.29l-42.58,8.16-6.74,30.85,32.34,6.16,76.1-1.72-59.13-43.45ZM37.67,315.3l-15.53-5.77h0s0,0,0,0h.01s.97-2.65.97-2.65l29.04-3.23,16.99,10.13-31.47,1.52Z"/>
  <path class="cls-1" d="M303.57,254.78l-80.12,58.61,80.65,8.87-.53-67.48ZM288.44,282.05l7.96,30.26-37.43-7.21"/>
</svg>