<?xml version="1.0" encoding="UTF-8"?><svg id="Layer_6" xmlns="http://www.w3.org/2000/svg" viewBox="0 0 486.31 328.72"><defs><style>.cls-1{fill:#231f20;}.cls-2{fill:#f68948;stroke:#231f20;stroke-miterlimit:10;stroke-width:3px;}</style></defs><path class="cls-2" d="M432.96,315.8H122.36c0-97.8-29.93-195.6-29.93-293.41V1.5h310.61v24.35c0,96.65,29.93,193.3,29.93,289.95Z"/><rect class="cls-1" x="105.36" y="19.49" width="250.2" height="17.99" rx="1.27" ry="1.27"/><rect class="cls-1" x="108.73" y="43.11" width="250.2" height="17.99" rx="1.27" ry="1.27"/><path class="cls-1" d="M416.37,233.71h-164.02c-.46,0-.85-.34-.91-.8l-2.02-16.16c-.07-.55.36-1.03.91-1.03h164.02c.46,0,.85.34.91.8l2.02,16.16c.07.55-.36,1.03-.91,1.03Z"/></svg>