<?xml version="1.0" encoding="UTF-8"?>
<svg id="Layer_3" data-name="Layer 3" xmlns="http://www.w3.org/2000/svg" viewBox="0 0 312.65 320.53">
  <defs>
    <style>
      .cls-1 {
        fill: none;
        stroke: #000;
        stroke-miterlimit: 10;
        stroke-width: 12.92px;
      }
    </style>
  </defs>
  <polygon class="cls-1" points="277.08 88.36 203.09 30.1 264.33 44.12 277.08 88.36"/>
  <polygon class="cls-1" points="305.38 186.49 271.48 220.46 268.27 242.66 236.75 255.26 159.61 286.09 132.43 296.95 101.83 272.86 48.3 260.6 37.15 221.92 17.5 206.45 22.57 171.34 34.12 91.31 38.4 61.67 80.49 44.85 115.28 9.99 148.61 17.62 174.24 7.38 203.09 30.1 277.08 88.36 289.18 97.88 286.06 119.48 305.38 186.49"/>
  <polygon class="cls-1" points="34.12 91.31 22.57 171.34 7.26 118.23 34.12 91.31"/>
  <polygon class="cls-1" points="236.75 255.26 197.36 294.73 159.61 286.09 236.75 255.26"/>
  <polygon points="246.53 83.45 186.25 72.41 134.82 84.48 121.09 74.83 101.64 78.3 101.64 78.3 118.65 57.32 137.51 70.57 187.36 58.87 246.53 83.45 246.53 83.45"/>
  <polygon points="108.34 279.3 99.44 266.37 155.75 228.33 203.46 168.99 203.46 168.99 162.17 240.99 108.34 279.3"/>
  <polygon points="26.76 171.63 18.13 162.01 46.9 136.16 75.45 159.3 75.45 159.3 49.95 150.8 26.76 171.63"/>
  <path d="M301.08,312.4l-59.97-13.61,55.68-40.73,4.29,54.35ZM267.02,294.03l19.81,3.03-1.24-15.67-18.57,12.64Z"/>
  <path d="M31.36,320.53l-30.44-11.31,8.25-22.4,41.83-4.65,41.48,30.48-61.13,7.88ZM17.6,301.55l15.8,5.87,31.98-1.54-17.27-10.3-29.51,3.28-.99,2.7Z"/>
</svg>