<?xml version="1.0" encoding="UTF-8"?>
<svg id="Layer_3" data-name="Layer 3" xmlns="http://www.w3.org/2000/svg" viewBox="0 0 312.65 327.26">
  <defs>
    <style>
      .cls-1 {
        stroke-width: 12.92px;
      }

      .cls-1, .cls-2 {
        fill: none;
        stroke: #fff;
        stroke-miterlimit: 10;
      }
    </style>
  </defs>
  <polygon class="cls-1" points="277.08 93.71 203.09 35.45 264.33 49.47 277.08 93.71"/>
  <polygon class="cls-1" points="305.38 191.84 271.48 225.81 268.27 248.01 236.75 260.61 159.61 291.44 132.43 302.3 101.83 278.21 48.3 265.95 37.15 227.27 17.5 211.8 22.57 176.69 34.12 96.66 38.4 67.02 80.49 50.2 115.28 15.34 148.61 22.97 174.24 12.73 203.09 35.45 277.08 93.71 289.18 103.23 286.06 124.83 305.38 191.84"/>
  <polygon class="cls-1" points="34.12 96.66 22.57 176.69 7.26 123.58 34.12 96.66"/>
  <polygon class="cls-1" points="236.75 260.61 197.36 300.08 159.61 291.44 236.75 260.61"/>
  <polygon class="cls-2" points="246.53 88.8 186.25 77.75 134.82 89.83 121.09 80.18 101.64 83.65 101.64 83.65 118.65 62.67 137.51 75.92 187.36 64.22 246.53 88.8 246.53 88.8"/>
  <polygon class="cls-2" points="108.34 284.65 99.44 271.72 155.75 233.68 203.46 174.33 203.46 174.33 162.17 246.33 108.34 284.65"/>
  <polygon class="cls-2" points="26.76 176.98 18.13 167.36 46.9 141.51 75.45 164.65 75.45 164.65 49.95 156.15 26.76 176.98"/>
  <path class="cls-2" d="M301.08,317.74l-59.97-13.61,55.68-40.73,4.29,54.35ZM267.02,299.38l19.81,3.03-1.24-15.67-18.57,12.64Z"/>
  <path class="cls-2" d="M31.36,325.88l-30.44-11.31,8.25-22.4,41.83-4.65,41.48,30.48-61.13,7.88ZM17.6,306.9l15.8,5.87,31.98-1.54-17.27-10.3-29.51,3.28-.99,2.7Z"/>
</svg>