<?xml version="1.0" encoding="UTF-8"?>
<svg xmlns="http://www.w3.org/2000/svg" version="1.1" viewBox="0 0 312.65 327.26">
  <!-- Generator: Adobe Illustrator 30.2.1, SVG Export Plug-In . SVG Version: 2.1.1 Build 1)  -->
  <defs>
    <style>
      .st0 {
        fill: #010101;
      }

      .st1 {
        fill: #fff;
      }

      .st2 {
        fill: none;
        stroke: #fff;
        stroke-miterlimit: 10;
        stroke-width: 15.74px;
      }

      .st3 {
        display: none;
      }
    </style>
  </defs>
  <g id="Layer_2" class="st3">
    <rect class="st0" x="-3" y="-2.74" width="318.78" height="333.39"/>
  </g>
  <g id="Layer_3">
    <polygon class="st2" points="274.44 97.02 201.63 39.69 261.89 53.49 274.44 97.02"/>
    <polygon class="st2" points="302.28 193.57 268.93 226.99 265.77 248.84 234.75 261.24 158.85 291.57 132.11 302.26 102 278.55 49.33 266.49 38.36 228.43 19.02 213.21 24.01 178.66 35.38 99.92 39.59 70.75 81 54.2 115.23 19.9 148.03 27.41 173.25 17.34 201.63 39.69 274.44 97.02 286.34 106.38 283.27 127.64 302.28 193.57"/>
    <polygon class="st2" points="35.38 99.92 24.01 178.66 8.95 126.41 35.38 99.92"/>
    <polygon class="st2" points="234.75 261.24 197.61 305.18 158.85 291.57 234.75 261.24"/>
    <polygon class="st1" points="199.19 65.2 138.74 71.04 117.06 55.81 82.39 98.58 115.75 75.58 134.78 92.33 187.22 80.01 287.43 104.08 199.19 65.2"/>
    <polygon class="st1" points="150.18 239.66 97.75 275.92 113.68 294.66 167.61 252.3 203.09 164.85 150.18 239.66"/>
    <polygon class="st1" points="24.44 185.14 13.57 165.14 47.66 146.27 111.57 178.66 51.33 163.32 24.44 185.14"/>
    <path class="st1" d="M54.17,279.55l-42.58,8.16-6.74,30.85,32.34,6.16,76.1-1.72-59.13-43.45ZM34.67,312.56l-15.53-5.77h0s0,0,0,0h.01s.97-2.65.97-2.65l29.04-3.23,16.99,10.13-31.47,1.52Z"/>
    <path class="st1" d="M300.57,252.04l-80.12,58.61,80.65,8.87-.53-67.48ZM285.44,279.31l7.96,30.26-37.43-7.21"/>
  </g>
</svg>