<?xml version="1.0" encoding="UTF-8"?>
<svg id="Layer_4" data-name="Layer 4" xmlns="http://www.w3.org/2000/svg" viewBox="0 0 312.65 327.26">
  <defs>
    <style>
      .cls-1 {
        stroke-width: 11px;
      }

      .cls-1, .cls-2 {
        fill: none;
      }

      .cls-1, .cls-2, .cls-3, .cls-4 {
        stroke: #fff;
        stroke-miterlimit: 10;
      }

      .cls-2, .cls-3, .cls-4 {
        stroke-width: 13px;
      }

      .cls-4 {
        fill: #fff;
      }
    </style>
  </defs>
  <rect class="cls-2" x="79.28" y="33.8" width="217.1" height="282.72"/>
  <rect class="cls-2" x="84.08" y="33.8" width="209.29" height="277.27"/>
  <rect class="cls-2" x="103.74" y="6.5" width="11.01" height="41.83" rx="2" ry="2"/>
  <rect class="cls-2" x="135.46" y="6.5" width="11.01" height="41.83" rx="2" ry="2"/>
  <rect class="cls-2" x="167.19" y="6.5" width="11.01" height="41.83" rx="2" ry="2"/>
  <rect class="cls-2" x="198.91" y="6.5" width="11.01" height="41.83" rx="2" ry="2"/>
  <rect class="cls-2" x="230.63" y="6.5" width="11.01" height="41.83" rx="2" ry="2"/>
  <rect class="cls-2" x="262.36" y="6.5" width="11.01" height="41.83" rx="2" ry="2"/>
  <rect class="cls-3" x="119.57" y="96.14" width="136.51" height="12.77"/>
  <rect class="cls-3" x="106.8" y="137.54" width="65.61" height="3.96"/>
  <rect class="cls-3" x="201.48" y="137.54" width="65.61" height="3.96"/>
  <rect class="cls-3" x="106.8" y="163.52" width="65.61" height="3.96"/>
  <rect class="cls-3" x="106.8" y="189.5" width="65.61" height="3.96"/>
  <path class="cls-4" d="M51.2,261.39H18.51V18.78c0-3.36,2.72-6.09,6.09-6.09h20.53c3.36,0,6.09,2.72,6.09,6.09v242.61Z"/>
  <path class="cls-1" d="M33.67,312.49l15.99-39.46h-30.01s13.87,39.46,13.87,39.46c.02.07.12.07.15,0Z"/>
</svg>