<?xml version="1.0" encoding="UTF-8"?><svg id="Layer_1" xmlns="http://www.w3.org/2000/svg" viewBox="0 0 486.31 328.72"><defs><style>.cls-1{fill:#fbfbfb;}.cls-1,.cls-2,.cls-3,.cls-4{stroke:#231f20;stroke-miterlimit:10;stroke-width:2px;}.cls-2{fill:#e4e5e6;}.cls-3{fill:#d3d5d6;}.cls-5{fill:#231f20;}.cls-4{fill:#f68948;}</style></defs><path class="cls-3" d="M483.69,217.78H178.74c-.98,0-1.78-.78-1.78-1.74L96.75,55.63c-.57-1.14.28-2.47,1.58-2.47h304.61c.67,0,1.28.37,1.58.96l80.62,161.23c.48.97-.03,2.22-1.11,2.41-.1.02-.21.03-.32.03Z"/><path class="cls-1" d="M411.05,153.64l-55.27,73.96-11.78,21.12c-3.73,6.63-5.05,10.87-11.62,12.96l-66.71,27.31c-.32.13-.66.2-1,.2H1.26c-.28,0-.36-.38-.1-.49l66.68-28.02c3.37-1.06,6.36-3.33,8.55-6.5l48.04-69.54c13.53-19.59,33.97-30.99,55.55-30.99h231.07Z"/><path class="cls-1" d="M478.98,227.6h-122.39c10.43-18.97,20.85-37.94,31.28-56.9.08-.14.16-.28.23-.43,11.46-20.85,36.78-22.38,49.98-3.03,13.68,20.04,27.35,40.09,41.03,60.13.07.1,0,.23-.13.23Z"/><path class="cls-2" d="M401.36,53.15c.51,0,.85.51.65.96l-90.02,204.17c-.83,1.92-1.77,3.39-3.74,3.39h-110.29c-1.92,0-3.48-1.48-3.56-3.33,0-.1.02-.2.05-.29l6.84-17.49c.04-.09.06-.19.05-.29-.08-1.85-1.64-3.33-3.56-3.33H13.8c-1.57,0-1.46-1.56-2.71-2.72-.23-.21-.27-.55-.14-.82L94,53.97c.23-.5.74-.82,1.29-.82h306.06Z"/><path class="cls-1" d="M178.11,221.41H38.13c-2.26,0-3.76-2.29-2.81-4.3l11.65-24.74c.51-1.07,1.6-1.76,2.81-1.76h139.48c2.24,0,3.74,2.25,2.83,4.25l-11.15,24.74c-.5,1.1-1.61,1.81-2.83,1.81Z"/><polygon class="cls-5" points="263.94 179.57 52.39 179.57 55.73 172.44 266.27 172.44 263.94 179.57"/><polygon class="cls-5" points="293.5 167.18 58.13 167.18 61.45 160.05 296.1 160.05 293.5 167.18"/><polygon class="cls-5" points="222.2 134.48 72.38 134.48 75.72 127.35 224.54 127.35 222.2 134.48"/><polygon class="cls-5" points="226.17 122.08 78.13 122.08 81.44 114.96 228.76 114.96 226.17 122.08"/><path class="cls-4" d="M427.62,267.8h-76.97c-1.18,0-1.53-1.57-.46-2.05l14.94-6.69c.14-.06.3-.1.46-.1h76.97c1.18,0,1.53,1.57.46,2.05l-14.94,6.69c-.14.06-.3.1-.46.1Z"/></svg>