<?xml version="1.0" encoding="UTF-8"?>
<svg id="Layer_6" data-name="Layer 6" xmlns="http://www.w3.org/2000/svg" viewBox="0 0 356.39 333.98">
  <defs>
    <style>
      .cls-1 {
        fill: #fff;
        stroke: #fff;
        stroke-miterlimit: 10;
        stroke-width: 3px;
      }
    </style>
  </defs>
  <path class="cls-1" d="M208.07,302.44l-139.17-82.36-.79-119.8L208.48,20.74c4.51-2.41,9.89.97,9.89,6.21v269.53c0,5.46-5.79,8.81-10.3,5.97Z"/>
  <path class="cls-1" d="M17.16,100.88h34.17v118.05H17.16c-8.64,0-15.66-7.02-15.66-15.66v-86.74c0-8.64,7.02-15.66,15.66-15.66Z"/>
  <path class="cls-1" d="M319.3,157.95l33.39,34.47c2.93,3.02,2.93,7.92,0,10.95l-12.98,13.4c-2.93,3.02-7.68,3.02-10.6,0l-33.38-34.48-33.39,34.48c-2.93,3.02-7.68,3.02-10.6,0l-12.97-13.4c-2.93-3.02-2.93-7.92,0-10.94l33.38-34.47-33.38-34.48c-2.93-3.02-2.93-7.92,0-10.95l12.97-13.39c2.93-3.02,7.67-3.02,10.6,0l33.39,34.47,33.38-34.47c2.93-3.02,7.67-3.02,10.6,0l12.98,13.39c2.93,3.02,2.93,7.92,0,10.95l-33.39,34.48Z"/>
</svg>